<svg width="20" height="21" viewBox="0 0 20 21" fill="none" xmlns="http://www.w3.org/2000/svg">
<g clip-path="url(#clip0_934_4021)">
<path fill-rule="evenodd" clip-rule="evenodd" d="M10.8333 1.33333C10.8333 0.873096 10.4602 0.5 10 0.5C9.53977 0.5 9.16667 0.873096 9.16667 1.33333V3.83333H7.91667C6.92211 3.83333 5.96828 4.22842 5.26502 4.93168C4.56176 5.63494 4.16667 6.58877 4.16667 7.58333C4.16667 8.57789 4.56176 9.53172 5.26502 10.235C5.96828 10.9382 6.92211 11.3333 7.91667 11.3333H9.16667V15.5H5.00001C4.53977 15.5 4.16667 15.8731 4.16667 16.3333C4.16667 16.7936 4.53977 17.1667 5.00001 17.1667H9.16667V19.6667C9.16667 20.1269 9.53977 20.5 10 20.5C10.4602 20.5 10.8333 20.1269 10.8333 19.6667V17.1667H12.0833C13.0779 17.1667 14.0317 16.7716 14.735 16.0683C15.4383 15.3651 15.8333 14.4112 15.8333 13.4167C15.8333 12.4221 15.4383 11.4683 14.735 10.765C14.0317 10.0618 13.0779 9.66667 12.0833 9.66667H10.8333V5.5H14.1667C14.6269 5.5 15 5.1269 15 4.66667C15 4.20643 14.6269 3.83333 14.1667 3.83333H10.8333V1.33333ZM9.16667 5.5H7.91667C7.36414 5.5 6.83423 5.71949 6.44353 6.11019C6.05283 6.5009 5.83334 7.0308 5.83334 7.58333C5.83334 8.13587 6.05283 8.66577 6.44353 9.05647C6.83423 9.44717 7.36414 9.66667 7.91667 9.66667H9.16667V5.5ZM10.8333 11.3333V15.5H12.0833C12.6359 15.5 13.1658 15.2805 13.5565 14.8898C13.9472 14.4991 14.1667 13.9692 14.1667 13.4167C14.1667 12.8641 13.9472 12.3342 13.5565 11.9435C13.1658 11.5528 12.6359 11.3333 12.0833 11.3333H10.8333Z" fill="#2D3648"/>
</g>
<defs>
<clipPath id="clip0_934_4021">
<rect width="20" height="20" fill="white" transform="translate(0 0.5)"/>
</clipPath>
</defs>
</svg>
