<svg width="20" height="20" viewBox="0 0 20 20" fill="none" xmlns="http://www.w3.org/2000/svg">
<path fill-rule="evenodd" clip-rule="evenodd" d="M14.1667 1.66634C14.1667 1.2061 13.7936 0.833008 13.3333 0.833008C12.8731 0.833008 12.5 1.2061 12.5 1.66634V2.49967H7.50001V1.66634C7.50001 1.2061 7.12691 0.833008 6.66667 0.833008C6.20643 0.833008 5.83334 1.2061 5.83334 1.66634V2.49967H4.16667C2.78596 2.49967 1.66667 3.61896 1.66667 4.99967V16.6663C1.66667 18.0471 2.78596 19.1663 4.16667 19.1663H15.8333C17.2141 19.1663 18.3333 18.0471 18.3333 16.6663V4.99967C18.3333 3.61896 17.2141 2.49967 15.8333 2.49967H14.1667V1.66634ZM16.6667 7.49967V4.99967C16.6667 4.53944 16.2936 4.16634 15.8333 4.16634H14.1667V4.99967C14.1667 5.45991 13.7936 5.83301 13.3333 5.83301C12.8731 5.83301 12.5 5.45991 12.5 4.99967V4.16634H7.50001V4.99967C7.50001 5.45991 7.12691 5.83301 6.66667 5.83301C6.20643 5.83301 5.83334 5.45991 5.83334 4.99967V4.16634H4.16667C3.70643 4.16634 3.33334 4.53944 3.33334 4.99967V7.49967H16.6667ZM3.33334 9.16634H16.6667V16.6663C16.6667 17.1266 16.2936 17.4997 15.8333 17.4997H4.16667C3.70643 17.4997 3.33334 17.1266 3.33334 16.6663V9.16634Z" fill="#2D3648"/>
</svg>
