<svg width="14" height="14" viewBox="0 0 14 14" fill="none" xmlns="http://www.w3.org/2000/svg">
<path fill-rule="evenodd" clip-rule="evenodd" d="M3.49996 4.95823C3.49996 4.15282 4.15288 3.4999 4.95829 3.4999C5.76371 3.4999 6.41663 4.15282 6.41663 4.95823C6.41663 5.76365 5.76371 6.41657 4.95829 6.41657C4.15288 6.41657 3.49996 5.76365 3.49996 4.95823ZM4.95829 4.66657C4.79721 4.66657 4.66663 4.79715 4.66663 4.95823C4.66663 5.11931 4.79721 5.2499 4.95829 5.2499C5.11938 5.2499 5.24996 5.11931 5.24996 4.95823C5.24996 4.79715 5.11938 4.66657 4.95829 4.66657Z" fill="#2D3648"/>
<path fill-rule="evenodd" clip-rule="evenodd" d="M1.16663 2.91657C1.16663 1.95007 1.95013 1.16656 2.91663 1.16656H11.0833C12.0498 1.16656 12.8333 1.95007 12.8333 2.91657V11.0832C12.8333 12.0497 12.0498 12.8332 11.0833 12.8332H2.91663C1.95013 12.8332 1.16663 12.0497 1.16663 11.0832V2.91657ZM2.91663 2.33323C2.59446 2.33323 2.33329 2.5944 2.33329 2.91657V11.0832C2.33329 11.3334 2.49075 11.5468 2.71196 11.6297L8.92086 5.42075C9.14866 5.19295 9.51801 5.19295 9.74582 5.42075L11.6666 7.34156V2.91657C11.6666 2.5944 11.4055 2.33323 11.0833 2.33323H2.91663ZM11.6666 8.99148L9.33334 6.65819L4.32496 11.6666H11.0833C11.4055 11.6666 11.6666 11.4054 11.6666 11.0832V8.99148Z" fill="#2D3648"/>
</svg>
