<svg width="20" height="20" viewBox="0 0 20 20" fill="none" xmlns="http://www.w3.org/2000/svg">
<g clip-path="url(#clip0_934_4015)">
<path d="M6.16671 10.9997C6.53374 10.7244 7.05394 10.7977 7.33076 11.1629L7.33463 11.1678C7.33959 11.1741 7.34902 11.1858 7.3628 11.2022C7.39043 11.2351 7.4352 11.2865 7.49623 11.3502C7.61898 11.4783 7.80343 11.652 8.04227 11.8257C8.52315 12.1755 9.18798 12.4997 10 12.4997C10.8121 12.4997 11.4769 12.1755 11.9578 11.8257C12.1967 11.652 12.3811 11.4783 12.5039 11.3502C12.5649 11.2865 12.6097 11.2351 12.6373 11.2022C12.6511 11.1858 12.6605 11.1741 12.6655 11.1678L12.6693 11.1629C12.9461 10.7977 13.4663 10.7244 13.8334 10.9997C14.2016 11.2758 14.2762 11.7981 14 12.1663L13.3334 11.6663C14 12.1663 14.0002 12.1661 14 12.1663L13.9992 12.1675L13.9982 12.1687L13.996 12.1717L13.99 12.1796L13.9722 12.2023C13.9578 12.2205 13.9384 12.2445 13.9139 12.2737C13.865 12.3319 13.7959 12.4108 13.7072 12.5033C13.5304 12.6878 13.2722 12.9307 12.9381 13.1736C12.2732 13.6572 11.2713 14.1663 10 14.1663C8.72877 14.1663 7.72693 13.6572 7.06198 13.1736C6.7279 12.9307 6.46965 12.6878 6.29292 12.5033C6.20421 12.4108 6.13505 12.3319 6.08618 12.2737C6.06172 12.2445 6.04225 12.2205 6.02789 12.2023L6.01014 12.1796L6.00413 12.1717L6.00185 12.1687L6.00088 12.1675C6.00068 12.1672 6.00004 12.1663 6.66671 11.6663L6.00004 12.1663C5.7239 11.7981 5.79852 11.2758 6.16671 10.9997Z" fill="#2D3648"/>
<path d="M6.66666 7.49967C6.66666 7.03944 7.03976 6.66634 7.49999 6.66634H7.50833C7.96857 6.66634 8.34166 7.03944 8.34166 7.49967C8.34166 7.95991 7.96857 8.33301 7.50833 8.33301H7.49999C7.03976 8.33301 6.66666 7.95991 6.66666 7.49967Z" fill="#2D3648"/>
<path d="M12.5 6.66634C12.0398 6.66634 11.6667 7.03944 11.6667 7.49967C11.6667 7.95991 12.0398 8.33301 12.5 8.33301H12.5083C12.9686 8.33301 13.3417 7.95991 13.3417 7.49967C13.3417 7.03944 12.9686 6.66634 12.5083 6.66634H12.5Z" fill="#2D3648"/>
<path fill-rule="evenodd" clip-rule="evenodd" d="M9.99999 0.833008C4.93738 0.833008 0.833328 4.93706 0.833328 9.99967C0.833328 15.0623 4.93738 19.1663 9.99999 19.1663C15.0626 19.1663 19.1667 15.0623 19.1667 9.99967C19.1667 4.93706 15.0626 0.833008 9.99999 0.833008ZM2.49999 9.99967C2.49999 5.85754 5.85786 2.49967 9.99999 2.49967C14.1421 2.49967 17.5 5.85754 17.5 9.99967C17.5 14.1418 14.1421 17.4997 9.99999 17.4997C5.85786 17.4997 2.49999 14.1418 2.49999 9.99967Z" fill="#2D3648"/>
</g>
<defs>
<clipPath id="clip0_934_4015">
<rect width="20" height="20" fill="white"/>
</clipPath>
</defs>
</svg>
