<svg width="20" height="20" viewBox="0 0 20 20" fill="none" xmlns="http://www.w3.org/2000/svg">
<path fill-rule="evenodd" clip-rule="evenodd" d="M10 5C8.15906 5 6.66667 6.49238 6.66667 8.33333C6.66667 10.1743 8.15906 11.6667 10 11.6667C11.841 11.6667 13.3333 10.1743 13.3333 8.33333C13.3333 6.49238 11.841 5 10 5ZM8.33334 8.33333C8.33334 7.41286 9.07953 6.66667 10 6.66667C10.9205 6.66667 11.6667 7.41286 11.6667 8.33333C11.6667 9.25381 10.9205 10 10 10C9.07953 10 8.33334 9.25381 8.33334 8.33333Z" fill="#2D3648"/>
<path fill-rule="evenodd" clip-rule="evenodd" d="M9.5373 19.8597C9.53754 19.8599 9.53776 19.86 10 19.1667L9.5373 19.8597C9.81722 20.0464 10.1823 20.0467 10.4623 19.86L10 19.1667C10.4623 19.86 10.462 19.8602 10.4623 19.86L10.4651 19.8581L10.4706 19.8544L10.4897 19.8415C10.506 19.8305 10.5291 19.8147 10.5587 19.7942C10.6179 19.7532 10.703 19.6934 10.8102 19.616C11.0246 19.4612 11.328 19.2352 11.691 18.9462C12.4156 18.3692 13.3838 17.5357 14.355 16.5106C16.2631 14.4965 18.3333 11.585 18.3333 8.33333C18.3333 6.1232 17.4554 4.00358 15.8926 2.44078C14.3298 0.877974 12.2101 0 10 0C7.78987 0 5.67025 0.877974 4.10745 2.44078C2.54465 4.00358 1.66667 6.1232 1.66667 8.33333C1.66667 11.585 3.73689 14.4965 5.64504 16.5106C6.61616 17.5357 7.58445 18.3692 8.30902 18.9462C8.67197 19.2352 8.97546 19.4612 9.18983 19.616C9.29706 19.6934 9.38211 19.7532 9.4413 19.7942C9.4709 19.8147 9.49404 19.8305 9.51027 19.8415L9.52937 19.8544L9.53492 19.8581L9.5373 19.8597ZM5.28596 3.61929C6.5362 2.36905 8.2319 1.66667 10 1.66667C11.7681 1.66667 13.4638 2.36905 14.7141 3.61929C15.9643 4.86953 16.6667 6.56522 16.6667 8.33333C16.6667 10.915 14.9869 13.4202 13.145 15.3644C12.2412 16.3185 11.3344 17.0996 10.6528 17.6424C10.3991 17.8444 10.1775 18.0127 10 18.1438C9.82252 18.0127 9.60093 17.8444 9.34724 17.6424C8.66556 17.0996 7.75885 16.3185 6.85497 15.3644C5.01312 13.4202 3.33334 10.915 3.33334 8.33333C3.33334 6.56522 4.03572 4.86953 5.28596 3.61929Z" fill="#2D3648"/>
</svg>
